<?xml version="1.0" encoding="UTF-8"?>
<svg id="Layer_2" data-name="Layer 2" xmlns="http://www.w3.org/2000/svg" viewBox="0 0 428.87 48.86">
  <defs>
    <style>
      .cls-1 {
        fill: #319966;
      }

      .cls-2 {
        fill: #d4e2d6;
      }

      #Letter1 {
        animation-delay: 0
      }

      #Letter2 {
        animation-delay: 0.1s;
      }

      #Letter3 {
        animation-delay: 0.2s;
      }

      #Letter4 {
        animation-delay: 0.3s;
      }

      #Letter5 {
        animation-delay: 0.4s;
      }

      #Letter6 {
        animation-delay: 0.5s;
      }

      #Letter7 {
        animation-delay: 0.6s;
      }

      #Letter8 {
        animation-delay: 0.7s;
      }

      .animate__pulse {
        -webkit-animation: pulse 0.2s;
        animation: pulse 0.2s;
        -webkit-animation-timing-function: ease-in-out;
        animation-timing-function: ease-in-out;
      }

      @-webkit-keyframes pulse {
        0% {
            -webkit-transform: scale(1);
            transform: scale(1);
            transform-origin: center;
        }

        50% {
            -webkit-transform: scale(1.05);
            transform: scale(1.05)
            transform-origin: center;
        }

        to {
            -webkit-transform: scale(1);
            transform: scale(1);
            transform-origin: center;
        }
      }

      @keyframes pulse {
        0% {
          -webkit-transform: scale(1);
          transform: scale(1);
          transform-origin: center;
        }

        50% {
          -webkit-transform: scale(1.05);
          transform: scale(1.05);
          transform-origin: center;
        }

        to {
          -webkit-transform: scale(1);
          transform: scale(1);
          transform-origin: center;
        }
      }
    </style>
  </defs>
  <g id="ArtboardDarkColours">
    <g>
      <g id="Letter1" class="animate__pulse">
        <rect class="cls-1 animate__pulse" y=".02" width="48.71" height="48.71"/>
        <path class="cls-2 animate__pulse" d="M21.28,33.78h14.16l-.48,7.39H13.27V7.57h8.02v26.21Z"/>
      </g>
      <g id="Letter2" class="animate__pulse">
        <rect class="cls-1" x="54.31" y=".02" width="48.71" height="48.71"/>
        <path class="cls-2" d="M74.66,41.18V7.57h8.02V41.18h-8.02Z"/>
      </g>
      <g id="Letter3" class="animate__pulse">
        <rect class="cls-1" x="108.62" y=".02" width="48.71" height="48.71"/>
        <path class="cls-2" d="M146.1,7.57l-.48,7.39h-8.64v26.21h-8.06V14.97h-9.07V7.57h26.26Z"/>
      </g>
      <g id="Letter4" class="animate__pulse">
        <rect class="cls-1" x="162.93" width="48.71" height="48.71"/>
        <path class="cls-2" d="M173.87,7.57h14.3c8.59,0,12.05,5.14,12.05,10.8,0,4.42-2.11,8.54-7.2,10.13l7.68,11.81v.82h-8.69l-7.87-11.95h-2.26v11.95h-8.02V7.57Zm8.02,6.86v7.92h5.04c3.55,0,5.09-1.49,5.09-4.03s-1.54-3.89-5.09-3.89h-5.04Z"/>
      </g>
      <g id="Letter5" class="animate__pulse">
        <rect class="cls-1" x="217.24" y=".02" width="48.71" height="48.71"/>
        <path class="cls-2" d="M229.71,7.57h23.33v7.3h-15.27v5.86h14.5v7.15h-14.5v6h15.7l-.48,7.3h-23.28V7.57Z"/>
      </g>
      <g id="Letter6" class="animate__pulse">
        <rect class="cls-1" x="271.55" y=".02" width="48.71" height="48.71"/>
        <path class="cls-2" d="M279.22,41.18v-.86l12.87-32.74h7.54l12.96,32.74v.86h-8.02l-2.16-5.66h-13.1l-2.06,5.66h-8.02Zm20.98-12.05l-4.27-11.62h-.1l-4.32,11.62h8.69Z"/>
      </g>
      <g id="Letter7" class="animate__pulse">
        <rect class="cls-1" x="325.86" y=".16" width="48.71" height="48.71"/>
        <path class="cls-2" d="M363.44,39.77c-3.12,1.44-5.71,2.06-9.79,2.06-9.74,0-16.95-7.58-16.95-17.33s7.2-17.33,16.95-17.33c4.13,0,6.91,.72,10.08,2.4l-.91,7.58c-2.54-1.78-4.9-2.54-7.87-2.54-6.58,0-9.98,4.9-9.98,9.89s3.41,9.89,9.98,9.89c3.89,0,6.34-1.25,8.5-2.59v7.97Z"/>
      </g>
      <g id="Letter8" class="animate__pulse">
        <rect class="cls-1" x="380.17" y=".02" width="48.71" height="48.71"/>
        <path class="cls-2" d="M389.78,41.18V7.57h8.06v12.77h13.35V7.57h8.06V41.18h-8.06v-13.44h-13.35v13.44h-8.06Z"/>
      </g>
    </g>
  </g>
</svg>